<svg width="14" height="14" viewBox="0 0 14 14" fill="none" xmlns="http://www.w3.org/2000/svg">
<g clip-path="url(#clip0_472_7028)">
<path d="M6.99331 13.9702C10.8556 13.9702 13.9866 10.8429 13.9866 6.98511C13.9866 3.12734 10.8556 0 6.99331 0C3.13101 0 0 3.12734 0 6.98511C0 10.8429 3.13101 13.9702 6.99331 13.9702Z" fill="#2DBE70"/>
<path fill-rule="evenodd" clip-rule="evenodd" d="M9.78904 4.88967C9.59923 4.88674 9.41493 4.95804 9.27372 5.09087C7.42978 6.67801 7.67368 7.01595 5.90309 8.67244C5.66377 8.40287 5.42812 8.12744 5.21447 7.83443C5.08427 7.64007 4.97424 7.433 4.88621 7.21422C4.55704 6.34984 3.11379 6.99447 3.59334 7.92722C3.82349 8.51128 5.20347 10.4598 5.81598 10.4774C6.90254 10.5086 8.16974 8.00437 10.2622 6.20529C10.5565 5.91521 10.5684 5.4337 10.2888 5.12799C10.1558 4.98441 9.97518 4.89944 9.78354 4.89163L9.78904 4.88967Z" fill="white"/>
</g>
<defs>
<clipPath id="clip0_472_7028">
<rect width="13.9866" height="13.9702" fill="white"/>
</clipPath>
</defs>
</svg>
