<svg width="20" height="20" viewBox="0 0 20 20" fill="none" xmlns="http://www.w3.org/2000/svg">
<path d="M10.4519 10.5013L10.4992 10.5267L10.5465 10.5013L11.677 9.89469L16.4766 14.9083C16.2313 15.0732 15.9397 15.1699 15.6263 15.1699L5.3728 15.1692C5.05948 15.1692 4.76841 15.0725 4.52321 14.9076L9.32209 9.89471L10.4519 10.5013ZM15.6265 3.9H5.37283C4.0066 3.9 2.9 5.04093 2.9 6.43784V13.5622C2.9 14.9591 4.00668 16.1 5.37283 16.1H15.6265C16.9927 16.1 18.0993 14.9591 18.0993 13.5622L18.1 6.43785C18.1 5.04081 16.9926 3.9 15.6265 3.9ZM17.1885 13.5622C17.1885 13.7845 17.144 13.9963 17.0641 14.1889L12.5196 9.44184L17.1885 6.93605V13.5622ZM5.3728 4.83096H15.6264C16.3121 4.83096 16.8977 5.2897 17.106 5.92854L10.4992 9.47426L3.89388 5.92854C4.10214 5.28968 4.68719 4.83096 5.3728 4.83096ZM8.48037 9.44253L3.93581 14.1889C3.85591 13.9963 3.81141 13.7845 3.81141 13.5616V6.93621L8.48037 9.44253Z" fill="#414141" stroke="#414141" stroke-width="0.2"/>
</svg>
