<svg width="20" height="20" viewBox="0 0 20 20" fill="none" xmlns="http://www.w3.org/2000/svg">
<path d="M14.0191 18.9921C13.4622 18.9914 12.9124 18.874 12.4035 18.6478C7.91546 16.6637 4.32862 13.077 2.34425 8.58897C1.78378 7.33492 1.91405 5.87979 2.68855 4.74518L3.92188 2.92639C4.28121 2.40529 4.85314 2.0696 5.48376 2.00948C6.11366 1.95007 6.73857 2.17196 7.18952 2.61574L9.36775 4.79463C9.84018 5.2742 10.0599 5.94775 9.96044 6.61342C9.86095 7.27909 9.45366 7.85959 8.86169 8.17954C8.40286 8.42433 8.21316 8.98407 8.42862 9.45721C8.80657 10.6017 11.765 13.8835 12.813 12.1299V12.1306C13.1329 11.538 13.7134 11.1314 14.3791 11.0319C15.0448 10.9324 15.7184 11.1515 16.198 11.6246L18.377 13.8027C18.8258 14.2515 19.0505 14.8778 18.9904 15.5092C18.9303 16.1412 18.5917 16.7138 18.0663 17.0695C16.9389 17.7889 15.4429 19.1145 14.0191 18.9921ZM12.8673 17.6014C13.7607 18.0001 14.7964 17.907 15.6047 17.3559L17.4235 16.1226V16.1219C17.6662 15.9573 17.8229 15.6931 17.8501 15.4011C17.878 15.109 17.7743 14.8199 17.5667 14.613L15.3884 12.4341C15.1665 12.2158 14.8551 12.1149 14.5474 12.1607C14.2403 12.2065 13.9719 12.3948 13.8237 12.6682C11.9496 15.6222 8.29133 12.0476 7.38647 9.93317C6.92048 8.9089 7.33064 7.69784 8.32417 7.16883C8.59761 7.02067 8.78586 6.75226 8.83167 6.44519C8.8782 6.1374 8.77655 5.82604 8.55823 5.60416L6.37999 3.42601C6.17098 3.22058 5.88252 3.11822 5.59118 3.14615C5.30057 3.17406 5.03644 3.32867 4.86965 3.56917L3.63631 5.38796C3.08515 6.19608 2.9921 7.2317 3.3908 8.12517C5.26046 12.3532 8.63913 15.7318 12.8673 17.6014Z" fill="#414141"/>
</svg>
